<?xml version="1.0" encoding="UTF-8" standalone="no"?>
<svg
   xmlns:dc="http://purl.org/dc/elements/1.1/"
   xmlns:cc="http://creativecommons.org/ns#"
   xmlns:rdf="http://www.w3.org/1999/02/22-rdf-syntax-ns#"
   xmlns:svg="http://www.w3.org/2000/svg"
   xmlns="http://www.w3.org/2000/svg"
   xmlns:xlink="http://www.w3.org/1999/xlink"
   xmlns:sodipodi="http://sodipodi.sourceforge.net/DTD/sodipodi-0.dtd"
   xmlns:inkscape="http://www.inkscape.org/namespaces/inkscape"
   width="172.16815mm"
   height="172.16815mm"
   viewBox="0 0 172.16815 172.16815"
   version="1.1"
   id="svg8"
   inkscape:version="1.0.1 (3bc2e813f5, 2020-09-07)"
   sodipodi:docname="adbk.svg">
  <defs
     id="defs2">
    <rect
       id="SVGID_1_"
       width="398.60001"
       height="196.5"
       x="0"
       y="0" />
    <rect
       id="SVGID_3_"
       width="398.60001"
       height="196.5"
       x="0"
       y="0" />
    <rect
       id="SVGID_5_"
       width="398.60001"
       height="196.5"
       x="0"
       y="0" />
    <rect
       id="SVGID_7_"
       width="398.60001"
       height="196.5"
       x="0"
       y="0" />
    <rect
       id="SVGID_9_"
       width="398.60001"
       height="196.5"
       x="0"
       y="0" />
    <defs
       id="defs852">
      <rect
         id="rect988"
         width="398.60001"
         height="196.5"
         x="0"
         y="0" />
    </defs>
    <clipPath
       id="SVGID_4_">
      <use
         xlink:href="#SVGID_3_"
         style="overflow:visible"
         id="use854"
         x="0"
         y="0"
         width="100%"
         height="100%" />
    </clipPath>
    <defs
       id="defs836">
      <rect
         id="rect978"
         width="398.60001"
         height="196.5"
         x="0"
         y="0" />
    </defs>
    <clipPath
       id="SVGID_2_">
      <use
         xlink:href="#SVGID_1_"
         style="overflow:visible"
         id="use838"
         x="0"
         y="0"
         width="100%"
         height="100%" />
    </clipPath>
    <rect
       id="SVGID_1_-9"
       width="398.60001"
       height="196.5"
       x="0"
       y="0" />
    <rect
       id="SVGID_3_-2"
       width="398.60001"
       height="196.5"
       x="0"
       y="0" />
    <rect
       id="SVGID_5_-6"
       width="398.60001"
       height="196.5"
       x="0"
       y="0" />
    <rect
       id="SVGID_7_-6"
       width="398.60001"
       height="196.5"
       x="0"
       y="0" />
    <rect
       id="SVGID_9_-9"
       width="398.60001"
       height="196.5"
       x="0"
       y="0" />
    <defs
       id="defs1226">
      <rect
         id="rect1337"
         width="398.60001"
         height="196.5"
         x="0"
         y="0" />
    </defs>
    <clipPath
       id="SVGID_8_">
      <use
         xlink:href="#SVGID_7_-6"
         style="overflow:visible"
         id="use1228"
         x="0"
         y="0"
         width="100%"
         height="100%" />
    </clipPath>
    <rect
       id="rect888"
       width="398.60001"
       height="196.5"
       x="0"
       y="0" />
    <rect
       id="rect890"
       width="398.60001"
       height="196.5"
       x="0"
       y="0" />
    <rect
       id="rect892"
       width="398.60001"
       height="196.5"
       x="0"
       y="0" />
  </defs>
  <sodipodi:namedview
     id="base"
     pagecolor="#ffffff"
     bordercolor="#666666"
     borderopacity="1.0"
     inkscape:pageopacity="0.0"
     inkscape:pageshadow="2"
     inkscape:zoom="1.4"
     inkscape:cx="179.58354"
     inkscape:cy="196.56023"
     inkscape:document-units="mm"
     inkscape:current-layer="layer1"
     inkscape:document-rotation="0"
     showgrid="false"
     fit-margin-top="0"
     fit-margin-left="0"
     fit-margin-right="0"
     fit-margin-bottom="0"
     inkscape:window-width="2560"
     inkscape:window-height="1537"
     inkscape:window-x="1042"
     inkscape:window-y="-8"
     inkscape:window-maximized="1" />
  <metadata
     id="metadata5">
    <rdf:RDF>
      <cc:Work
         rdf:about="">
        <dc:format>image/svg+xml</dc:format>
        <dc:type
           rdf:resource="http://purl.org/dc/dcmitype/StillImage" />
        <dc:title></dc:title>
      </cc:Work>
    </rdf:RDF>
  </metadata>
  <g
     inkscape:label="Ebene 1"
     inkscape:groupmode="layer"
     id="layer1"
     transform="translate(-25.135416,-6.6145844)">
    <g
       id="g909">
      <rect
         style="fill:#ffffff;stroke:none;stroke-width:0.264583"
         id="rect901"
         width="172.16815"
         height="172.16815"
         x="25.135416"
         y="6.6145844" />
      <g
         inkscape:label="Ebene 1"
         id="layer1-8"
         transform="matrix(3.1619218,0,0,3.1619218,42.372221,75.762497)"
         inkscape:export-xdpi="96"
         inkscape:export-ydpi="96">
        <path
           class="st2"
           d="m 116.6,120.4 h -15.8 v 35.7 h 15.8 V 143 c 5.1,0.1 7.9,4.6 8.3,13.1 H 142 c -0.5,-8.5 -3.3,-14.3 -8.1,-17.9 4.9,-3.8 7.1,-9.3 7.1,-17.8 h -16.1 c 0,6.5 -2.4,11.5 -8.3,11.9 v -11.9"
           clip-path="url(#SVGID_4_)"
           id="path867"
           transform="matrix(0.26458333,0,0,0.26458333,6.5746059,-31.855833)" />
        <path
           class="st2"
           d="m 73.8,100.6 h 1.1 c 3.3,0 4.4,1.7 4.4,4 0,2.7 -1.4,3.7 -5,3.7 h -0.5 z m 0,-12.9 h 1 c 3.2,0 4.2,1.5 4.2,3.5 0,2.5 -1.3,3.5 -4.8,3.5 H 73.8 Z M 58,80.5 v 35.7 h 25 c 8.3,0 12.2,-4.4 12.2,-9.9 0,-3.1 -1.1,-5.8 -5.6,-8.2 3.6,-2.1 4.7,-4.7 4.7,-7.7 0,-4.1 -2.3,-10 -13.9,-10 H 58"
           clip-path="url(#SVGID_4_)"
           id="path879"
           transform="matrix(0.26458333,0,0,0.26458333,7.2058786,-21.2725)" />
        <path
           class="st1"
           d="m 6.270625,3.307291 v 0 l 0.79375,2.3018745 H 5.503333 Z M 3.280833,0 0,9.4720825 h 4.180417 l 0.555625,-1.5875 h 3.069166 l 0.555625,1.5875 H 12.54125 L 9.260417,0 Z"
           id="path907"
           style="stroke-width:0.264583" />
        <path
           class="st4"
           d="m 319.3,66 h -1.1 c -2.8,0 -4.3,-1 -4.3,-3.5 0,-2.1 1.2,-3.6 3,-3.6 0.9,0 1.8,0.3 2.4,0.7 z m 14.4,-25.5 h -14.5 v 8.3 c -0.6,-0.3 -2.8,-1 -5.5,-1 -7.9,0 -13.9,6 -13.9,14.1 0,6.8 4.6,14.3 16.6,14.3 h 17.2 V 40.5"
           clip-path="url(#SVGID_8_)"
           id="path1245"
           transform="matrix(0.26458333,0,0,0.26458333,-66.614522,-10.668378)" />
      </g>
    </g>
  </g>
  <style
     type="text/css"
     id="style833">
	.st0{clip-path:url(#SVGID_2_);fill:#010202;}
	.st1{fill:#010202;}
	.st2{clip-path:url(#SVGID_4_);fill:#010202;}
	.st3{clip-path:url(#SVGID_6_);fill:#010202;}
	.st4{clip-path:url(#SVGID_8_);fill:#010202;}
	.st5{clip-path:url(#SVGID_10_);fill:#010202;}
</style>
  <style
     type="text/css"
     id="style1149">
	.st0{clip-path:url(#SVGID_2_);fill:#010202;}
	.st1{fill:#010202;}
	.st2{clip-path:url(#SVGID_4_);fill:#010202;}
	.st3{clip-path:url(#SVGID_6_);fill:#010202;}
	.st4{clip-path:url(#SVGID_8_);fill:#010202;}
	.st5{clip-path:url(#SVGID_10_);fill:#010202;}
</style>
</svg>
