{"accessors" : [{"bufferView" : 0, "byteOffset" : 0, "componentType" : 5125, "count" : 176742, "type" : "SCALAR", "max" : [176714], "min" : [0]}, {"bufferView" : 1, "byteOffset" : 0, "componentType" : 5126, "count" : 176715, "type" : "VEC3", "max" : [191.7170867919922, 219.0257568359375, 305.4832763671875], "min" : [-13.6676025390625, 11.664260864257812, 0.245697021484375], "name" : "POSITION"}, {"bufferView" : 1, "byteOffset" : 12, "componentType" : 5126, "count" : 176715, "type" : "VEC3", "max" : [0.9999884366989136, 0.9999906420707703, 1.0000001192092896], "min" : [-0.9999862909317017, -1.0000041723251343, -0.9999155402183533], "name" : "NORMAL"}], "asset" : {"generator" : "Aspose.3D 21.3.1", "version" : "2.0"}, "buffers" : [{"uri" : "buffer.bin", "byteLength" : 4948784}], "bufferViews" : [{"buffer" : 0, "byteOffset" : 0, "byteLength" : 706968, "target" : 34963}, {"buffer" : 0, "byteOffset" : 706972, "byteLength" : 4241808, "byteStride" : 24, "target" : 34962}], "meshes" : [{"primitives" : [{"attributes" : {"POSITION" : 1, "NORMAL" : 2}, "indices" : 0, "mode" : 4}]}], "nodes" : [{"mesh" : 0, "name" : ""}], "scene" : 0, "scenes" : [{"nodes" : [0]}]}