{"asset":{"generator":"3D Builder","version":"2.0"},"scene":0,"scenes":[{"nodes":[0]}],"nodes":[{"mesh":0,"matrix":[0.99999994039535522,0,0,0,0,-1.1920928244535389E-7,-0.99999982118606567,0,0,0.99999982118606567,-1.1920928244535389E-7,0,0,-0.00024569698143750429,2.9289366071383327E-11,1]}],"meshes":[{"primitives":[{"attributes":{"POSITION":0,"COLOR_0":1},"mode":4,"indices":2}]}],"accessors":[{"bufferView":0,"byteOffset":0,"count":27013,"componentType":5126,"type":"VEC3","min":[-0.013667603023350239,0.011664261110126972,0.00024569703964516521],"max":[0.19171710312366486,0.21902576088905334,0.30548328161239624]},{"bufferView":1,"byteOffset":0,"count":27013,"componentType":5121,"type":"VEC4","normalized":true},{"bufferView":2,"byteOffset":0,"count":176742,"componentType":5125,"type":"SCALAR"}],"bufferViews":[{"buffer":0,"byteOffset":0,"byteLength":324156,"byteStride":12,"target":34962},{"buffer":0,"byteOffset":324156,"byteLength":108052,"byteStride":4,"target":34962},{"buffer":0,"byteOffset":432208,"byteLength":706968,"target":34963}],"buffers":[{"byteLength":1139176,"uri":"test_65k.bin"}]}